<svg xmlns="http://www.w3.org/2000/svg" version="1.1" xmlns:xlink="http://www.w3.org/1999/xlink" width="512" height="512" x="0" y="0" viewBox="0 0 50 50" style="enable-background:new 0 0 512 512" xml:space="preserve" class=""><g><path d="M47.6 10.7c-1-2.3-2.5-4.3-4.6-5.7-3.1-2.1-7.2-2.6-10.7-1.3s-6.3 4.4-7.3 8c-.9-3.2-3.1-5.9-6.1-7.4-6-3.2-12.9-.3-16 5.5-3.6 6.6-.7 14.2 3.3 19.9 4.6 6.4 10.5 11.7 16.7 16.7 1.3 1 3 1 4.3 0 6.2-4.9 12.1-10.2 16.7-16.7 2.3-3.2 4.2-6.8 4.8-10.7.1-.4.1-.8.1-1.2.1-2.5-.3-4.9-1.2-7.1zm-8.8 15.9h-5.7c-.5 0-1-.3-1.3-.7l-1.1-1.7-3.4 5.3c-.3.5-.9.8-1.5.7-.6 0-1.1-.4-1.4-.9l-4.1-8.4-2.3 4.7c-.3.6-.8.9-1.5.9h-6c-.9 0-1.6-.7-1.6-1.6s.7-1.6 1.6-1.6h5l3.3-6.8c.3-.6.8-.9 1.5-.9.6 0 1.2.4 1.5.9l4.3 8.8 3.2-4.9c.3-.5.8-.7 1.3-.7s1 .3 1.3.7l2 3h4.8c.9 0 1.6.7 1.6 1.6s-.6 1.6-1.5 1.6z" fill="#f9044c" opacity="1" data-original="#000000" class=""></path></g></svg>